<svg xmlns="http://www.w3.org/2000/svg" viewBox="0 0 360 330">
<rect width="360" height="330" fill="#FFFFFF"/>
<g transform="translate(50,20)" stroke="#122C40" fill="none" stroke-linecap="round">
  <!-- dimension line above roof -->
  <g stroke-width="0.7" opacity="0.55">
    <line x1="4" y1="2" x2="256" y2="2"/>
    <line x1="4" y1="-2" x2="4" y2="6"/><line x1="256" y1="-2" x2="256" y2="6"/>
    <line x1="0" y1="4.5" x2="8" y2="-0.5"/><line x1="252" y1="4.5" x2="260" y2="-0.5"/>
  </g>
  <!-- roof with fascia -->
  <path d="M0 62 L130 14 L260 62" stroke-width="2.6" stroke-linejoin="round"/>
  <path d="M8 63 L130 18.5 L252 63" stroke-width="1"/>
  <!-- gable truss -->
  <g stroke-width="1">
    <line x1="14" y1="60" x2="246" y2="60"/>
    <line x1="130" y1="19" x2="130" y2="60"/>
    <line x1="72" y1="40.5" x2="72" y2="60"/><line x1="72" y1="40.5" x2="130" y2="60"/>
    <line x1="188" y1="40.5" x2="188" y2="60"/><line x1="188" y1="40.5" x2="130" y2="60"/>
    <line x1="43" y1="51" x2="43" y2="60"/><line x1="217" y1="51" x2="217" y2="60"/>
  </g>
  <!-- walls / corner columns -->
  <line x1="12" y1="63" x2="12" y2="130" stroke-width="2.2"/>
  <line x1="248" y1="63" x2="248" y2="130" stroke-width="2.2"/>
  <line x1="18" y1="64" x2="18" y2="130" stroke-width="0.9"/>
  <line x1="242" y1="64" x2="242" y2="130" stroke-width="0.9"/>
  <!-- base plates -->
  <path d="M7 130 h10 M243 130 h10" stroke-width="2.4"/>
  <!-- cladding -->
  <g stroke-width="0.55" opacity="0.75"><line x1="18" y1="72" x2="93" y2="72"/><line x1="167" y1="72" x2="242" y2="72"/>
<line x1="18" y1="80" x2="93" y2="80"/><line x1="167" y1="80" x2="242" y2="80"/>
<line x1="18" y1="88" x2="93" y2="88"/><line x1="167" y1="88" x2="242" y2="88"/>
<line x1="18" y1="96" x2="93" y2="96"/><line x1="167" y1="96" x2="242" y2="96"/>
<line x1="18" y1="104" x2="93" y2="104"/><line x1="167" y1="104" x2="242" y2="104"/>
<line x1="18" y1="112" x2="93" y2="112"/><line x1="167" y1="112" x2="242" y2="112"/>
<line x1="18" y1="120" x2="93" y2="120"/><line x1="167" y1="120" x2="242" y2="120"/>
</g>
  <!-- strip windows -->
  <rect x="28" y="66" width="52" height="10" stroke-width="1"/>
  <rect x="180" y="66" width="52" height="10" stroke-width="1"/>
  <g stroke-width="0.7"><line x1="40" y1="66" x2="40" y2="76"/><line x1="53" y1="66" x2="53" y2="76"/><line x1="66" y1="66" x2="66" y2="76"/><line x1="79" y1="66" x2="79" y2="76"/><line x1="193" y1="66" x2="193" y2="76"/><line x1="206" y1="66" x2="206" y2="76"/><line x1="219" y1="66" x2="219" y2="76"/><line x1="232" y1="66" x2="232" y2="76"/></g>
  <!-- header beam + industrial door -->
  <rect x="93" y="76" width="74" height="6" stroke-width="1.3"/>
  <rect x="97" y="82" width="66" height="48" stroke-width="1.4"/>
  <g stroke-width="0.55" opacity="0.75"><line x1="103" y1="82" x2="103" y2="128"/><line x1="111" y1="82" x2="111" y2="128"/><line x1="119" y1="82" x2="119" y2="128"/><line x1="127" y1="82" x2="127" y2="128"/><line x1="135" y1="82" x2="135" y2="128"/><line x1="143" y1="82" x2="143" y2="128"/><line x1="151" y1="82" x2="151" y2="128"/><line x1="159" y1="82" x2="159" y2="128"/></g>
  <!-- ground -->
  <line x1="-14" y1="130" x2="274" y2="130" stroke-width="2.8"/>
  <g stroke-width="0.7" opacity="0.6"><line x1="14" y1="131" x2="7" y2="139"/><line x1="26" y1="131" x2="19" y2="139"/><line x1="38" y1="131" x2="31" y2="139"/><line x1="50" y1="131" x2="43" y2="139"/><line x1="62" y1="131" x2="55" y2="139"/><line x1="74" y1="131" x2="67" y2="139"/><line x1="86" y1="131" x2="79" y2="139"/><line x1="98" y1="131" x2="91" y2="139"/><line x1="110" y1="131" x2="103" y2="139"/><line x1="122" y1="131" x2="115" y2="139"/><line x1="134" y1="131" x2="127" y2="139"/><line x1="146" y1="131" x2="139" y2="139"/><line x1="158" y1="131" x2="151" y2="139"/><line x1="170" y1="131" x2="163" y2="139"/><line x1="182" y1="131" x2="175" y2="139"/><line x1="194" y1="131" x2="187" y2="139"/><line x1="206" y1="131" x2="199" y2="139"/><line x1="218" y1="131" x2="211" y2="139"/><line x1="230" y1="131" x2="223" y2="139"/><line x1="242" y1="131" x2="235" y2="139"/><line x1="254" y1="131" x2="247" y2="139"/></g>
</g>
<!-- name -->
<text x="180" y="207" text-anchor="middle" font-family="Marcellus" font-size="30.5" letter-spacing="2.6" fill="#122C40">GJERGJI</text>
<text x="180" y="242" text-anchor="middle" font-family="Marcellus" font-size="19.5" letter-spacing="4.6" fill="#122C40">KONSTRUKSION</text>
<!-- rule · diamond · rule -->
<g stroke="#122C40" stroke-width="1">
  <line x1="72" y1="262" x2="168" y2="262"/>
  <line x1="192" y1="262" x2="288" y2="262"/>
</g>
<rect x="176" y="258" width="8" height="8" transform="rotate(45 180 262)" fill="#122C40"/>
<text x="180" y="288" text-anchor="middle" font-family="Archivo Medium" font-size="11.5" letter-spacing="3.6" fill="#122C40" opacity="0.85">PRODHIM · MONTIM</text>
<text x="180" y="310" text-anchor="middle" font-family="Archivo Medium" font-size="10" letter-spacing="3" fill="#122C40" opacity="0.6">EST. 2016 · SHKODËR</text>
</svg>